<svg width="48" height="48" viewBox="0 0 48 48" fill="none" xmlns="http://www.w3.org/2000/svg">
<path d="M24 48C10.7755 48 0 37.2245 0 24C0 10.7755 10.7755 0 24 0C37.2245 0 48 10.7755 48 24C48 37.2245 37.2245 48 24 48ZM24 0.979592C11.298 0.979592 0.979592 11.298 0.979592 24C0.979592 36.702 11.298 47.0204 24 47.0204C36.702 47.0204 47.0204 36.702 47.0204 24C47.0204 11.298 36.702 0.979592 24 0.979592Z" fill="white"/>
<path d="M35.8204 33.4694H12.3102C11.3306 33.4694 10.5143 32.6531 10.5143 31.6735V16.3266C10.5143 15.347 11.3306 14.5306 12.3102 14.5306H35.8204C36.8 14.5306 37.6163 15.347 37.6163 16.3266V31.6735C37.6163 32.6531 36.8326 33.4694 35.8204 33.4694ZM12.3102 15.5102C11.8531 15.5102 11.4939 15.8694 11.4939 16.3266V31.6735C11.4939 32.1306 11.8531 32.4898 12.3102 32.4898H35.8204C36.2775 32.4898 36.6367 32.1306 36.6367 31.6735V16.3266C36.6367 15.8694 36.2775 15.5102 35.8204 15.5102H12.3102Z" fill="white"/>
<path d="M21.2898 27.2654H13.7796C13.5184 27.2654 13.2898 27.0368 13.2898 26.7756C13.2898 26.5143 13.5184 26.2858 13.7796 26.2858H21.2898C21.551 26.2858 21.7796 26.5143 21.7796 26.7756C21.7796 27.0368 21.551 27.2654 21.2898 27.2654Z" fill="white"/>
<path d="M36.6367 21.0613H11.4939C11.2326 21.0613 11.0041 20.8327 11.0041 20.5715C11.0041 20.3102 11.2326 20.0817 11.4939 20.0817H36.6367C36.898 20.0817 37.1265 20.3102 37.1265 20.5715C37.1265 20.8327 36.898 21.0613 36.6367 21.0613Z" fill="white"/>
<path d="M27.8204 24H13.7796C13.5184 24 13.2898 23.7714 13.2898 23.5102C13.2898 23.249 13.5184 23.0204 13.7796 23.0204H27.8204C28.0816 23.0204 28.3102 23.249 28.3102 23.5102C28.3102 23.7714 28.0816 24 27.8204 24Z" fill="white"/>
<path d="M34.351 24H30.7592C30.498 24 30.2694 23.7714 30.2694 23.5102C30.2694 23.249 30.498 23.0204 30.7592 23.0204H34.351C34.6122 23.0204 34.8408 23.249 34.8408 23.5102C34.8408 23.7714 34.6122 24 34.351 24Z" fill="white"/>
</svg>
