<svg width="48" height="48" viewBox="0 0 48 48" fill="none" xmlns="http://www.w3.org/2000/svg">
<path d="M24 48C10.7755 48 0 37.2245 0 24C0 10.7755 10.7755 0 24 0C37.2245 0 48 10.7755 48 24C48 37.2245 37.2245 48 24 48ZM24 0.979592C11.298 0.979592 0.979592 11.298 0.979592 24C0.979592 36.702 11.298 47.0204 24 47.0204C36.702 47.0204 47.0204 36.702 47.0204 24C47.0204 11.298 36.702 0.979592 24 0.979592Z" fill="white"/>
<path d="M34.1878 32.8163H31.249C30.9878 32.8163 30.7592 32.5877 30.7592 32.3265V20.4081C30.7592 20.1469 30.9878 19.9183 31.249 19.9183C31.5102 19.9183 31.7388 20.1469 31.7388 20.4081V31.8367H33.698V20.4081C33.698 20.1469 33.9265 19.9183 34.1878 19.9183C34.449 19.9183 34.6775 20.1469 34.6775 20.4081V32.3265C34.6775 32.5877 34.449 32.8163 34.1878 32.8163Z" fill="white"/>
<path d="M28.3102 32.8163H25.3714C25.1102 32.8163 24.8817 32.5877 24.8817 32.3265V20.4081C24.8817 20.1469 25.1102 19.9183 25.3714 19.9183C25.6327 19.9183 25.8612 20.1469 25.8612 20.4081V31.8367H27.8204V20.4081C27.8204 20.1469 28.049 19.9183 28.3102 19.9183C28.5714 19.9183 28.8 20.1469 28.8 20.4081V32.3265C28.8 32.5877 28.5714 32.8163 28.3102 32.8163Z" fill="white"/>
<path d="M22.4327 32.8163H19.4939C19.2327 32.8163 19.0041 32.5877 19.0041 32.3265V20.4081C19.0041 20.1469 19.2327 19.9183 19.4939 19.9183C19.7551 19.9183 19.9837 20.1469 19.9837 20.4081V31.8367H21.9429V20.4081C21.9429 20.1469 22.1714 19.9183 22.4327 19.9183C22.6939 19.9183 22.9225 20.1469 22.9225 20.4081V32.3265C22.9225 32.5877 22.6939 32.8163 22.4327 32.8163Z" fill="white"/>
<path d="M16.5551 32.8163H13.6163C13.3551 32.8163 13.1265 32.5877 13.1265 32.3265V20.4081C13.1265 20.1469 13.3551 19.9183 13.6163 19.9183C13.8775 19.9183 14.1061 20.1469 14.1061 20.4081V31.8367H16.0653V20.4081C16.0653 20.1469 16.2939 19.9183 16.5551 19.9183C16.8163 19.9183 17.0449 20.1469 17.0449 20.4081V32.3265C17.0449 32.5877 16.8163 32.8163 16.5551 32.8163Z" fill="white"/>
<path d="M34.351 35.7551H13.4531C13.1918 35.7551 12.9633 35.5265 12.9633 35.2653C12.9633 35.0041 13.1918 34.7755 13.4531 34.7755H34.351C34.6122 34.7755 34.8408 35.0041 34.8408 35.2653C34.8408 35.5265 34.6122 35.7551 34.351 35.7551Z" fill="white"/>
<path d="M34.351 18.1224H13.4531C13.1918 18.1224 12.9633 17.8938 12.9633 17.6326C12.9633 17.3714 13.1918 17.1428 13.4531 17.1428H34.351C34.6122 17.1428 34.8408 17.3714 34.8408 17.6326C34.8408 17.8938 34.6122 18.1224 34.351 18.1224Z" fill="white"/>
<path d="M13.4531 18.1224C13.2898 18.1224 13.1265 18.0245 13.0286 17.8939C12.898 17.6653 12.9633 17.3714 13.1918 17.2081L23.8041 10.7102C23.9673 10.6122 24.1633 10.6122 24.3265 10.7102L34.6122 17.2081C34.8408 17.3388 34.9061 17.6653 34.7755 17.8939C34.6449 18.1224 34.3184 18.1877 34.0898 18.0571L24.0653 11.7224L13.7143 18.0571C13.649 18.0898 13.551 18.1224 13.4531 18.1224Z" fill="white"/>
</svg>
