<svg width="48" height="48" viewBox="0 0 48 48" fill="none" xmlns="http://www.w3.org/2000/svg">
<path d="M24 48C10.7755 48 0 37.2245 0 24C0 10.7755 10.7755 0 24 0C37.2245 0 48 10.7755 48 24C48 37.2245 37.2245 48 24 48ZM24 0.979592C11.298 0.979592 0.979592 11.298 0.979592 24C0.979592 36.702 11.298 47.0204 24 47.0204C36.702 47.0204 47.0204 36.702 47.0204 24C47.0204 11.298 36.702 0.979592 24 0.979592Z" fill="white"/>
<path d="M35.4939 32.1634H9.69796C9.43673 32.1634 9.20816 31.9348 9.20816 31.6736V18.9389C9.20816 18.6777 9.43673 18.4491 9.69796 18.4491H35.4939C35.7551 18.4491 35.9837 18.6777 35.9837 18.9389V31.6736C35.9837 31.9348 35.7551 32.1634 35.4939 32.1634ZM10.1878 31.1838H35.0041V19.4287H10.1878V31.1838Z" fill="white"/>
<path d="M38.4327 29.7143C38.1714 29.7143 37.9429 29.4858 37.9429 29.2245V16.4898H12.1469C11.8857 16.4898 11.6571 16.2613 11.6571 16C11.6571 15.7388 11.8857 15.5103 12.1469 15.5103H38.4327C38.6939 15.5103 38.9224 15.7388 38.9224 16V29.2245C38.9224 29.4858 38.6939 29.7143 38.4327 29.7143Z" fill="white"/>
<path d="M22.5959 29.3224C20.3755 29.3224 18.5796 27.5265 18.5796 25.3061C18.5796 23.0857 20.3755 21.2898 22.5959 21.2898C24.8163 21.2898 26.6122 23.0857 26.6122 25.3061C26.6122 27.5265 24.8163 29.3224 22.5959 29.3224ZM22.5959 22.2694C20.9306 22.2694 19.5592 23.6408 19.5592 25.3061C19.5592 26.9714 20.9306 28.3429 22.5959 28.3429C24.2612 28.3429 25.6326 26.9714 25.6326 25.3061C25.6326 23.6408 24.2612 22.2694 22.5959 22.2694Z" fill="white"/>
<path d="M35.4939 23.9022C32.751 23.9022 30.5306 21.6817 30.5306 18.9389C30.5306 18.6777 30.7592 18.4491 31.0204 18.4491C31.2816 18.4491 31.5102 18.6777 31.5102 18.9389C31.5102 21.1266 33.3061 22.9226 35.4939 22.9226C35.7551 22.9226 35.9837 23.1511 35.9837 23.4124C35.9837 23.6736 35.7551 23.9022 35.4939 23.9022Z" fill="white"/>
<path d="M9.79591 23.9022C9.53469 23.9022 9.30611 23.6736 9.30611 23.4124C9.30611 23.1511 9.53469 22.9226 9.79591 22.9226C11.9837 22.9226 13.7796 21.1266 13.7796 18.9389C13.7796 18.6777 14.0082 18.4491 14.2694 18.4491C14.5306 18.4491 14.7592 18.6777 14.7592 18.9389C14.7592 21.6817 12.5061 23.9022 9.79591 23.9022Z" fill="white"/>
<path d="M31.0204 32.0654C30.7592 32.0654 30.5306 31.8368 30.5306 31.5756C30.5306 28.8327 32.751 26.6123 35.4939 26.6123C35.7551 26.6123 35.9837 26.8409 35.9837 27.1021C35.9837 27.3633 35.7551 27.5919 35.4939 27.5919C33.3061 27.5919 31.5102 29.3878 31.5102 31.5756C31.5102 31.8694 31.2816 32.0654 31.0204 32.0654Z" fill="white"/>
<path d="M14.2694 32.0654C14.0082 32.0654 13.7796 31.8368 13.7796 31.5756C13.7796 29.3878 11.9837 27.5919 9.79591 27.5919C9.53469 27.5919 9.30611 27.3633 9.30611 27.1021C9.30611 26.8409 9.53469 26.6123 9.79591 26.6123C12.5388 26.6123 14.7592 28.8327 14.7592 31.5756C14.7592 31.8694 14.5306 32.0654 14.2694 32.0654Z" fill="white"/>
</svg>
